<?xml version="1.0" standalone="no"?>
<!DOCTYPE svg PUBLIC "-//W3C//DTD SVG 20010904//EN"
 "http://www.w3.org/TR/2001/REC-SVG-20010904/DTD/svg10.dtd">
<svg version="1.0" xmlns="http://www.w3.org/2000/svg"
 width="200.000000pt" height="200.000000pt" viewBox="0 0 600.000000 900.000000"
 preserveAspectRatio="xMidYMid meet">

<g transform="translate(-300.000000,630.000000) scale(0.100000,-0.100000)"
fill="#000000" stroke="none">
<path d="M2490 6305 c-8 -2 -49 -9 -90 -15 -400 -65 -740 -377 -848 -779 -22
-84 -25 -115 -25 -256 0 -141 3 -172 25 -256 108 -401 420 -691 843 -780 81
-18 322 -17 410 0 414 82 735 379 843 780 22 84 26 117 27 268 1 168 2 174 30
233 l29 60 221 0 221 0 11 -89 c35 -274 232 -506 513 -602 90 -31 103 -33 235
-33 132 0 145 2 235 33 112 38 162 65 251 137 111 88 193 213 241 364 33 107
33 292 -1 400 -76 245 -244 417 -491 501 -90 31 -103 33 -235 33 -132 0 -145
-2 -235 -33 -247 -84 -417 -258 -490 -500 l-23 -73 -45 83 c-25 46 -73 138
-106 204 -51 101 -65 120 -86 123 -23 3 -30 -7 -77 -100 -107 -209 -218 -424
-227 -436 -5 -9 -18 12 -41 67 -132 329 -423 570 -779 647 -65 14 -301 28
-336 19z m345 -124 c232 -58 448 -205 574 -389 50 -74 114 -206 135 -279 l15
-53 -45 0 c-24 0 -44 4 -44 10 0 13 -49 -9 -80 -36 -36 -31 -130 -87 -136 -81
-3 3 13 37 36 76 69 116 43 141 -64 60 l-68 -51 36 53 c22 32 32 57 27 62 -16
16 -37 1 -74 -56 -35 -53 -86 -101 -134 -126 -38 -20 -45 -14 -38 29 8 49 -13
55 -44 12 -28 -40 -87 -70 -103 -54 -30 30 71 152 124 152 28 0 19 -33 -12
-41 -22 -6 -23 -7 -7 -14 26 -11 61 25 52 54 -18 57 -103 29 -167 -55 -45 -58
-57 -100 -35 -121 19 -19 74 -11 109 16 24 19 24 19 36 0 7 -10 19 -19 27 -19
17 0 75 29 113 57 l23 16 -17 -36 c-30 -62 10 -65 47 -3 11 19 45 55 76 80 84
70 94 61 38 -31 -19 -32 -35 -66 -35 -77 0 -29 49 -14 131 39 68 44 71 45 153
45 l84 0 7 -85 c39 -467 -272 -889 -742 -1007 -125 -32 -341 -32 -466 0 -353
88 -625 352 -719 697 -31 114 -31 344 1 460 92 343 372 615 713 695 121 28
131 29 268 25 80 -3 154 -11 205 -24z m2239 14 c343 -73 569 -408 502 -745
-40 -200 -163 -357 -351 -451 -361 -179 -798 7 -917 391 -34 110 -32 264 5
375 105 314 434 499 761 430z m-1041 -375 c28 -58 61 -122 74 -142 l23 -38
-179 0 -179 0 86 173 87 172 19 -30 c11 -16 42 -77 69 -135z"/>
<path d="M2732 5828 c-18 -23 -58 -111 -97 -213 -21 -55 -42 -104 -46 -108 -6
-8 -182 19 -206 32 -8 4 6 47 43 135 30 71 53 135 50 141 -2 7 -15 10 -29 8
-22 -4 -33 -24 -83 -143 -50 -120 -61 -139 -83 -144 -32 -6 -68 -32 -59 -41 4
-4 14 0 23 9 9 9 25 16 35 16 16 0 10 -21 -46 -151 -70 -166 -92 -202 -134
-224 -39 -20 -62 -19 -94 6 -14 11 -26 16 -26 10 0 -34 98 -60 153 -42 62 21
98 74 166 244 35 86 67 157 71 157 8 0 160 -27 196 -35 20 -4 20 -5 3 -72 -35
-134 -18 -209 52 -237 42 -17 70 -19 107 -10 36 10 25 19 -23 19 -87 0 -114
74 -80 218 17 72 18 75 55 86 39 11 68 36 56 48 -3 4 -12 -1 -19 -10 -6 -9
-24 -19 -39 -23 l-28 -6 26 68 c14 38 45 113 69 166 23 53 40 99 37 102 -10
10 -39 6 -50 -6z"/>
<path d="M5120 6088 c-89 -44 -213 -192 -307 -366 -33 -59 -53 -82 -114 -128
-77 -59 -181 -114 -213 -114 -19 0 -19 0 5 92 8 29 19 42 49 58 63 32 63 90 0
90 -41 0 -60 -29 -90 -139 -32 -115 -35 -121 -58 -121 -55 0 -86 -74 -37 -86
31 -8 70 16 93 57 13 21 31 33 70 44 29 9 94 44 145 78 l92 63 -3 -48 c-5 -59
9 -62 43 -8 25 39 45 52 45 28 0 -7 -7 -22 -15 -32 -20 -26 -19 -56 1 -56 9 0
35 21 58 47 l42 46 0 -29 c-1 -46 30 -41 124 20 47 31 79 56 72 56 -7 0 -40
-18 -72 -40 -33 -22 -66 -43 -75 -46 -25 -10 -18 27 15 76 16 25 30 48 30 53
0 17 -30 5 -48 -20 -29 -41 -132 -142 -132 -129 0 6 7 20 15 30 26 34 19 49
-19 44 -33 -4 -34 -3 -24 22 5 13 18 39 29 57 17 28 27 33 57 33 20 0 57 5 82
11 31 7 46 7 48 0 6 -18 29 -12 35 8 2 10 26 29 52 42 66 33 141 118 159 180
19 61 11 103 -22 129 -32 26 -76 25 -132 -2z m134 -40 c22 -31 20 -54 -8 -113
-29 -62 -84 -115 -154 -150 -57 -29 -206 -64 -218 -52 -11 11 102 173 166 238
92 93 180 125 214 77z m-690 -357 c10 -15 -4 -38 -30 -49 -29 -14 -33 1 -8 36
16 23 29 28 38 13z m-160 -253 c-13 -23 -37 -48 -46 -48 -18 0 -7 38 15 48 30
15 40 14 31 0z"/>
</g>
</svg>
